<svg version="1.1" id="Layer_1" xmlns="http://www.w3.org/2000/svg" xmlns:xlink="http://www.w3.org/1999/xlink" x="0px" y="0px"
	 width="100%" viewBox="0 0 180 180" enable-background="new 0 0 180 180" xml:space="preserve">
<path fill="#010000" opacity="1.000000" stroke="none" 
	d="
M1.000000,69.000000 
	C1.000000,46.000008 1.000000,23.500019 1.000000,1.000021 
	C60.999966,1.000014 120.999931,1.000014 180.999908,1.000007 
	C180.999939,60.999939 180.999939,120.999878 180.999969,180.999863 
	C121.000084,180.999908 61.000168,180.999908 1.000127,180.999954 
	C1.000000,143.833328 1.000000,106.666664 1.000000,69.000000 
M33.108833,116.943626 
	C32.222084,116.681686 31.238094,116.582420 30.469425,116.122948 
	C29.002127,115.245842 27.657555,114.163445 26.262035,113.166267 
	C25.398422,114.718063 24.534809,116.269859 22.849039,117.805588 
	C21.892220,118.805504 20.185143,119.752037 20.109545,120.814644 
	C19.796196,125.219139 20.049923,129.660416 19.948122,134.084778 
	C19.881350,136.986771 21.672415,137.193268 23.938839,137.915451 
	C23.788511,140.783249 24.966412,142.198318 28.011581,141.924530 
	C29.806492,141.763168 31.630402,141.924377 33.360786,142.880264 
	C33.328121,151.671371 33.285343,160.462463 33.269413,169.253601 
	C33.265072,171.649857 33.300667,174.539780 36.707436,173.718048 
	C38.033104,173.398285 39.676216,170.890839 39.720371,169.338547 
	C39.979633,160.223389 39.809013,151.096008 40.693974,141.920639 
	C44.191486,141.485489 49.216774,143.719940 49.973137,137.097794 
	C50.920952,136.423721 52.653122,135.790039 52.690231,135.069092 
	C52.945213,130.115509 53.015087,125.132889 52.700203,120.187920 
	C52.644981,119.320686 50.496391,118.586761 49.127117,117.022781 
	C48.271194,115.715324 47.418091,113.338539 46.558723,113.336273 
	C45.046925,113.332291 43.519962,114.760277 42.021919,115.627609 
	C41.240051,116.080292 40.506256,116.615997 39.796749,116.297928 
	C38.724377,115.423096 37.618793,113.834686 36.589367,113.882599 
	C35.640251,113.926781 34.772915,115.728027 33.108833,116.943626 
M135.080017,116.999275 
	C134.280167,113.463547 136.947174,108.060341 130.192413,106.945366 
	C130.632355,105.020714 130.840591,101.540260 131.551407,101.434402 
	C135.067535,100.910736 134.755798,98.374954 135.995407,96.122421 
	C139.898758,95.290833 143.853561,90.796432 143.868607,87.074570 
	C143.898071,79.787918 143.768036,72.497940 143.974213,65.216988 
	C144.014755,63.785244 145.275330,62.388050 146.059326,61.787388 
	C146.636261,62.795792 147.007034,64.042961 147.836380,64.759026 
	C149.229614,65.961952 150.914520,66.827057 152.476715,67.834290 
	C152.296417,68.199402 152.116119,68.564522 151.935822,68.929634 
	C153.394974,68.929634 154.854126,68.929634 156.313278,68.929634 
	C156.112137,68.639603 155.911011,68.349571 155.709869,68.059540 
	C157.380753,66.620193 159.051636,65.180847 161.540436,63.036907 
	C162.201752,62.254631 163.646790,60.545296 165.577957,58.260925 
	C165.577957,56.261093 165.577957,53.202778 165.577957,50.109535 
	C162.264496,50.109535 159.310654,50.109535 156.564697,50.109535 
	C155.785599,51.675812 155.115860,53.022209 153.814484,55.638435 
	C153.064072,52.708744 152.725494,51.386940 152.436768,50.259701 
	C148.821747,50.259701 145.577454,50.259701 141.932236,50.259701 
	C141.932236,53.054489 141.932236,55.516251 141.236481,58.103954 
	C140.770676,58.175896 140.304871,58.247841 139.802750,57.517071 
	C139.905151,54.041874 137.468704,53.996769 134.898193,53.045761 
	C134.878616,41.178749 134.795837,29.311272 134.883560,17.445055 
	C134.905701,14.450729 134.273239,12.570282 130.759689,12.264273 
	C130.967621,9.134260 129.547028,7.780705 126.387886,8.012700 
	C124.277916,8.167648 122.118965,8.259512 120.031792,7.991405 
	C116.059982,7.481208 114.656715,9.279785 114.147827,13.052245 
	C111.400940,12.844320 110.832382,14.428521 110.865387,16.781712 
	C110.942268,22.263411 110.885941,27.746960 110.885612,33.229759 
	C110.884872,45.448193 110.885368,45.448193 98.889503,44.121307 
	C98.889503,41.519405 98.889503,38.917503 98.889503,36.051178 
	C97.020386,35.931755 95.574898,35.839401 94.065376,34.844810 
	C94.029335,29.271084 93.769867,23.686674 94.035667,18.127380 
	C94.213387,14.410656 93.111778,12.524216 89.149887,11.967260 
	C88.172028,10.983808 87.297638,9.318658 86.195892,9.151426 
	C83.464157,8.736785 80.613701,9.184965 77.838585,8.954110 
	C74.698112,8.692862 73.672646,10.112668 73.121597,13.035985 
	C70.231194,12.839204 70.033035,14.701910 70.031464,16.898298 
	C70.026970,23.182922 69.931847,29.467482 69.004646,35.776035 
	C66.063614,35.375584 64.890991,36.416485 65.015205,39.602749 
	C65.253906,45.725689 65.056717,51.865620 64.226753,58.103580 
	C60.980915,57.983871 61.028271,60.201271 61.036552,62.493526 
	C61.066059,70.659782 61.024509,78.826302 61.055904,86.992538 
	C61.073280,91.512672 65.080826,95.704956 69.937378,97.035385 
	C70.633926,98.339241 71.003662,100.140717 72.088570,100.853249 
	C75.287514,102.954193 74.844414,107.020897 73.225220,107.817535 
	C68.452866,110.165520 70.594284,113.946602 69.249832,117.231071 
	C66.031998,117.018227 65.055611,118.584618 64.950745,121.705986 
	C64.825554,125.432503 66.933014,130.101776 61.472176,132.242523 
	C61.028400,132.416504 61.079861,134.074539 61.053402,135.047119 
	C60.995064,137.191406 61.033360,139.338364 61.033298,141.484222 
	C61.033031,150.740311 61.033173,150.740311 70.039474,151.770584 
	C70.110542,152.420303 69.977470,153.512421 70.283234,153.653534 
	C75.042801,155.849747 74.336151,160.078918 73.985039,163.954208 
	C73.633369,167.835770 75.148254,169.430084 78.991760,169.987518 
	C78.718269,172.915192 79.950096,174.239243 82.974365,173.986359 
	C84.931923,173.822708 86.934875,173.776367 88.881348,173.996689 
	C92.616386,174.419449 94.541908,173.134430 94.909737,169.027069 
	C98.917404,169.495880 99.160309,166.948349 98.955284,164.007370 
	C98.786621,161.588120 99.188591,159.863739 102.338799,159.817627 
	C105.625122,159.769501 106.481308,161.414932 106.090530,164.140518 
	C105.557419,167.858826 107.223930,169.344696 110.822327,170.055954 
	C111.679924,171.356522 112.422714,173.666245 113.415428,173.779175 
	C117.269165,174.217606 121.202362,173.957642 125.175529,173.957642 
	C125.175529,171.836838 125.175529,170.533340 126.000931,169.066177 
	C129.202057,169.289474 130.174194,167.802734 130.287643,164.632584 
	C130.422577,160.862610 127.938690,155.805359 134.250641,154.146317 
	C134.668304,154.036530 134.586182,152.025208 135.681931,150.895798 
	C144.883347,150.838623 143.804352,151.816925 143.880157,142.701736 
	C143.897964,140.559158 143.678360,138.392151 143.928040,136.278931 
	C144.368637,132.549957 142.991440,130.650635 139.184570,129.868713 
	C139.185913,127.047363 139.086227,124.221344 139.216599,121.405968 
	C139.351044,118.503021 137.977127,117.509438 135.080017,116.999275 
M48.163494,29.606520 
	C49.681477,28.900967 51.199463,28.195412 52.610012,27.539793 
	C52.610012,24.494148 52.610012,21.573286 52.610012,17.814137 
	C48.766541,19.767313 43.372112,14.653374 41.608662,21.830902 
	C40.782547,21.449055 39.752285,21.252853 39.188286,20.632643 
	C38.634964,20.024179 38.555786,18.984539 38.388020,18.487881 
	C34.836559,18.487881 31.746935,18.487881 28.526854,18.487881 
	C28.526854,21.856949 28.526854,24.886404 28.526854,26.436043 
	C32.729355,30.306543 36.013100,33.330868 39.296841,36.355190 
	C39.072506,36.629063 38.848171,36.902931 38.623837,37.176800 
	C40.209969,37.176800 41.796101,37.176800 43.382229,37.176800 
	C43.165932,36.759365 42.949635,36.341927 42.733334,35.924492 
	C44.209553,34.812893 45.754044,33.777714 47.127300,32.550869 
	C47.652981,32.081234 47.787266,31.173491 48.163494,29.606520 
M57.635929,150.846466 
	C54.602882,150.317993 51.073666,148.589355 48.669930,149.583084 
	C46.023006,150.677368 44.366108,154.239822 42.400959,156.820709 
	C42.143456,157.158920 42.605858,158.605530 42.751369,158.608124 
	C46.057514,158.666916 49.424679,158.939651 52.646683,158.389374 
	C54.043613,158.150787 55.278664,156.273804 56.329407,154.938187 
	C57.046665,154.026459 57.317520,152.763519 57.635929,150.846466 
M26.825745,153.696671 
	C24.849852,148.431824 23.874817,148.057404 16.548914,149.750183 
	C15.584646,155.698029 20.120266,160.396332 26.474640,159.796860 
	C27.689999,159.682205 28.814600,158.605560 29.981070,157.972733 
	C29.189533,156.634750 28.397997,155.296783 26.825745,153.696671 
z"/>
<path fill="#E95769" opacity="1.000000" stroke="none" 
	d="
M94.129417,35.747044 
	C95.574898,35.839401 97.020386,35.931755 98.889503,36.051178 
	C98.889503,38.917503 98.889503,41.519405 98.551773,44.823471 
	C98.166817,47.055901 98.119591,48.586159 98.033142,50.559380 
	C97.946846,52.660984 98.090317,54.355633 97.786026,55.965660 
	C97.581718,57.046673 96.743179,58.007820 96.188416,59.022598 
	C95.315109,58.323959 94.461647,57.598492 93.563271,56.933739 
	C92.528732,56.168243 91.533875,55.033871 90.379524,54.817024 
	C88.493217,54.462673 86.491768,54.721241 84.580719,54.721241 
	C84.194420,52.908829 83.927254,51.655350 83.361984,49.003246 
	C79.421074,52.733688 75.647621,55.563766 70.752853,55.724495 
	C70.650040,55.727871 70.665825,56.473103 70.457748,56.603680 
	C69.045143,57.490139 67.587204,58.304344 65.964539,58.945068 
	C65.536896,58.498329 65.288620,58.248417 65.040337,57.998505 
	C65.056717,51.865620 65.253906,45.725689 65.015205,39.602749 
	C64.890991,36.416485 66.063614,35.375584 69.669586,36.077644 
	C70.920013,38.878773 71.059464,41.846367 75.416199,40.870644 
	C78.114639,40.723442 79.532654,41.359478 79.596275,44.052616 
	C79.610550,44.656704 81.121414,45.686924 81.929443,45.673721 
	C82.656250,45.661846 83.548393,44.596916 84.026375,43.793468 
	C84.469398,43.048786 84.460785,42.035416 84.655121,41.121174 
	C86.227211,41.013935 87.524529,40.925438 89.230293,40.860935 
	C94.135674,41.794434 92.468956,37.316708 94.129417,35.747044 
z"/>
<path fill="#6C1E2D" opacity="1.000000" stroke="none" 
	d="
M135.213699,96.123329 
	C134.755798,98.374954 135.067535,100.910736 131.551407,101.434402 
	C130.840591,101.540260 130.632355,105.020714 130.087051,107.725830 
	C129.948196,108.750168 129.914688,108.994034 129.477264,109.189896 
	C127.775810,108.446754 126.438530,107.815498 125.191147,107.039696 
	C123.754272,106.146049 122.410851,104.310364 121.002670,104.286087 
	C108.356125,104.068077 95.704041,104.127388 83.054276,104.210312 
	C81.875076,104.218040 79.964172,104.640427 79.646996,105.396416 
	C77.959190,109.419136 72.643517,111.901215 75.227257,117.586113 
	C73.002716,117.854172 71.553848,118.028763 70.091431,117.947380 
	C70.072983,117.520592 70.068100,117.349770 70.063225,117.178955 
	C70.594284,113.946602 68.452866,110.165520 73.225220,107.817535 
	C74.844414,107.020897 75.287514,102.954193 72.088570,100.853249 
	C71.003662,100.140717 70.633926,98.339241 69.989525,96.508560 
	C70.041672,95.981728 70.275246,95.710693 70.718925,95.711685 
	C73.643272,95.712669 76.123932,95.712669 78.800461,95.712669 
	C79.236420,97.268173 79.609360,98.598801 80.019035,100.060501 
	C81.768921,100.060501 83.259598,100.060539 84.750282,100.060501 
	C97.238731,100.060234 109.728470,100.136162 122.213387,99.925652 
	C123.298569,99.907356 124.351913,98.001419 125.563583,96.867661 
	C125.870255,96.580414 125.968185,96.367767 126.408768,95.965973 
	C129.131485,95.837738 131.446335,95.868622 134.124939,95.951340 
	C134.730377,96.043243 134.972046,96.083290 135.213699,96.123329 
z"/>
<path fill="#EE7182" opacity="1.000000" stroke="none" 
	d="
M48.131699,30.035954 
	C47.787266,31.173491 47.652981,32.081234 47.127300,32.550869 
	C45.754044,33.777714 44.209553,34.812893 42.733334,35.924492 
	C42.949635,36.341927 43.165932,36.759365 43.382229,37.176800 
	C41.796101,37.176800 40.209969,37.176800 38.623837,37.176800 
	C38.848171,36.902931 39.072506,36.629063 39.296841,36.355190 
	C36.013100,33.330868 32.729355,30.306543 28.526854,26.436043 
	C28.526854,24.886404 28.526854,21.856949 28.526854,18.487881 
	C31.746935,18.487881 34.836559,18.487881 38.388020,18.487881 
	C38.555786,18.984539 38.634964,20.024179 39.188286,20.632643 
	C39.752285,21.252853 40.782547,21.449055 41.608662,21.830902 
	C43.372112,14.653374 48.766541,19.767313 52.610012,17.814137 
	C52.610012,21.573286 52.610012,24.494148 52.610012,27.539793 
	C51.199463,28.195412 49.681477,28.900967 48.131699,30.035954 
z"/>
<path fill="#F57384" opacity="1.000000" stroke="none" 
	d="
M141.932236,57.978012 
	C141.932236,55.516251 141.932236,53.054489 141.932236,50.259701 
	C145.577454,50.259701 148.821747,50.259701 152.436768,50.259701 
	C152.725494,51.386940 153.064072,52.708744 153.814484,55.638435 
	C155.115860,53.022209 155.785599,51.675812 156.564697,50.109535 
	C159.310654,50.109535 162.264496,50.109535 165.577957,50.109535 
	C165.577957,53.202778 165.577957,56.261093 165.577957,58.260925 
	C163.646790,60.545296 162.201752,62.254631 161.540436,63.036907 
	C159.051636,65.180847 157.380753,66.620193 155.709869,68.059540 
	C155.911011,68.349571 156.112137,68.639603 156.313278,68.929634 
	C154.854126,68.929634 153.394974,68.929634 151.935822,68.929634 
	C152.116119,68.564522 152.296417,68.199402 152.476715,67.834290 
	C150.914520,66.827057 149.229614,65.961952 147.836380,64.759026 
	C147.007034,64.042961 146.636261,62.795792 145.944199,61.041870 
	C144.530121,59.523575 143.231186,58.750793 141.932236,57.978012 
z"/>
<path fill="#6C1F2E" opacity="1.000000" stroke="none" 
	d="
M110.756424,169.223984 
	C107.223930,169.344696 105.557419,167.858826 106.090530,164.140518 
	C106.481308,161.414932 105.625122,159.769501 102.338799,159.817627 
	C99.188591,159.863739 98.786621,161.588120 98.955284,164.007370 
	C99.160309,166.948349 98.917404,169.495880 94.437408,168.735458 
	C93.931595,168.203262 93.898102,167.962662 93.761024,167.303253 
	C93.657440,164.338989 93.657440,161.793518 93.657440,158.814240 
	C90.002457,158.814240 87.130432,158.814240 84.108093,158.814240 
	C84.108093,157.227554 84.108093,156.086807 84.569946,154.946686 
	C96.887566,154.969833 108.743317,154.992371 120.591927,155.475616 
	C119.558311,156.949951 118.678459,158.537659 117.471809,158.845840 
	C115.547752,159.337250 113.406242,158.977219 111.312332,158.977219 
	C111.312332,162.760239 111.312332,165.712326 111.173950,168.804901 
	C111.035568,168.945389 110.756424,169.223984 110.756424,169.223984 
z"/>
<path fill="#702534" opacity="1.000000" stroke="none" 
	d="
M98.072372,50.116421 
	C98.119591,48.586159 98.166817,47.055901 98.499176,45.273186 
	C110.885368,45.448193 110.884872,45.448193 110.885612,33.229759 
	C110.885941,27.746960 110.942268,22.263411 110.865387,16.781712 
	C110.832382,14.428521 111.400940,12.844320 114.906372,13.059193 
	C115.891106,13.103454 116.117287,13.140767 116.204979,13.617157 
	C116.066483,25.933994 116.066483,37.811756 116.066483,50.116421 
	C109.600945,50.116421 103.836655,50.116421 98.072372,50.116421 
z"/>
<path fill="#346439" opacity="1.000000" stroke="none" 
	d="
M39.783314,141.972748 
	C39.809013,151.096008 39.979633,160.223389 39.720371,169.338547 
	C39.676216,170.890839 38.033104,173.398285 36.707436,173.718048 
	C33.300667,174.539780 33.265072,171.649857 33.269413,169.253601 
	C33.285343,160.462463 33.328121,151.671371 33.671844,142.234436 
	C35.916370,141.716660 37.849842,141.844696 39.783314,141.972748 
z"/>
<path fill="#6F1F2E" opacity="1.000000" stroke="none" 
	d="
M130.802963,13.081653 
	C134.273239,12.570282 134.905701,14.450729 134.883560,17.445055 
	C134.795837,29.311272 134.878616,41.178749 134.779419,53.593834 
	C134.436523,54.279602 134.228455,54.438343 133.628738,54.612114 
	C132.423035,54.496010 131.625046,54.385921 130.742401,54.238811 
	C130.657745,54.201794 130.325821,54.039906 130.119583,53.609787 
	C129.808167,39.863213 129.702988,26.546764 129.898422,13.187691 
	C130.400330,13.123930 130.601639,13.102792 130.802963,13.081653 
z"/>
<path fill="#671D2B" opacity="1.000000" stroke="none" 
	d="
M141.584351,58.040985 
	C143.231186,58.750793 144.530121,59.523575 145.901154,60.635635 
	C145.275330,62.388050 144.014755,63.785244 143.974213,65.216988 
	C143.768036,72.497940 143.898071,79.787918 143.868607,87.074570 
	C143.853561,90.796432 139.898758,95.290833 135.604553,96.122879 
	C134.972046,96.083290 134.730377,96.043243 134.260437,95.574738 
	C134.170227,94.092682 134.308258,93.039085 134.584290,91.922836 
	C134.886475,91.723335 134.979599,91.548599 135.421753,91.219002 
	C138.217117,91.398010 138.943527,90.367119 138.904388,87.997002 
	C138.745392,78.373085 138.771713,68.746109 138.935883,59.015305 
	C139.411209,58.756908 139.643539,58.560059 139.839066,58.319786 
	C140.304871,58.247841 140.770676,58.175896 141.584351,58.040985 
z"/>
<path fill="#691D2C" opacity="1.000000" stroke="none" 
	d="
M69.656525,117.205017 
	C70.068100,117.349770 70.072983,117.520592 70.059143,118.394089 
	C68.908409,123.788681 72.825745,129.826828 66.306854,133.120987 
	C66.047447,133.252075 65.960190,134.089539 66.069923,134.528595 
	C67.102791,138.661255 63.057968,144.296631 69.711960,146.859100 
	C70.158928,147.031235 70.032028,148.693542 70.130280,149.987274 
	C70.063271,150.528442 70.038002,150.745087 70.012741,150.961731 
	C61.033173,150.740311 61.033031,150.740311 61.033298,141.484222 
	C61.033360,139.338364 60.995064,137.191406 61.053402,135.047119 
	C61.079861,134.074539 61.028400,132.416504 61.472176,132.242523 
	C66.933014,130.101776 64.825554,125.432503 64.950745,121.705986 
	C65.055611,118.584618 66.031998,117.018227 69.656525,117.205017 
z"/>
<path fill="#6B212F" opacity="1.000000" stroke="none" 
	d="
M64.633545,58.051041 
	C65.288620,58.248417 65.536896,58.498329 65.914444,59.402756 
	C66.043709,70.500313 66.043709,80.943352 66.043709,91.386398 
	C66.520592,91.214752 66.997475,91.043106 67.474350,90.871460 
	C68.407982,92.484543 69.341614,94.097618 70.275246,95.710693 
	C70.275246,95.710693 70.041672,95.981728 69.924385,96.117004 
	C65.080826,95.704956 61.073280,91.512672 61.055904,86.992538 
	C61.024509,78.826302 61.066059,70.659782 61.036552,62.493526 
	C61.028271,60.201271 60.980915,57.983871 64.633545,58.051041 
z"/>
<path fill="#722736" opacity="1.000000" stroke="none" 
	d="
M134.736542,150.898361 
	C134.586182,152.025208 134.668304,154.036530 134.250641,154.146317 
	C127.938690,155.805359 130.422577,160.862610 130.287643,164.632584 
	C130.174194,167.802734 129.202057,169.289474 125.487679,169.034637 
	C124.974426,169.003098 124.790215,168.762451 124.923317,168.328247 
	C125.109482,164.567230 124.965126,161.222244 125.269463,157.918579 
	C125.593323,154.403030 123.731194,154.040466 121.007294,153.975800 
	C122.073524,152.371933 123.056190,150.401993 124.311378,150.209549 
	C127.473991,149.724701 130.759445,150.041183 134.091766,150.203644 
	C134.328537,150.590607 134.511429,150.766449 134.736542,150.898361 
z"/>
<path fill="#6B1E2F" opacity="1.000000" stroke="none" 
	d="
M70.026108,151.366150 
	C70.038002,150.745087 70.063271,150.528442 70.570297,150.098938 
	C74.023293,149.948532 77.005402,150.197144 79.962929,150.024597 
	C83.387192,149.824844 84.430580,151.361053 83.511993,154.438293 
	C82.101509,154.429657 81.074951,154.458069 79.870407,154.464493 
	C79.426361,154.577713 79.357491,154.780365 79.444992,155.505798 
	C79.313263,159.880081 79.222343,163.798981 79.080948,168.080292 
	C78.990425,168.683350 78.950386,168.923981 78.910339,169.164627 
	C75.148254,169.430084 73.633369,167.835770 73.985039,163.954208 
	C74.336151,160.078918 75.042801,155.849747 70.283234,153.653534 
	C69.977470,153.512421 70.110542,152.420303 70.026108,151.366150 
z"/>
<path fill="#6C1E2D" opacity="1.000000" stroke="none" 
	d="
M94.097397,35.295929 
	C92.468956,37.316708 94.135674,41.794434 89.231125,40.407337 
	C88.777222,31.066378 88.730927,22.203009 88.820602,13.200994 
	C88.956573,13.062347 89.230904,12.787426 89.230904,12.787426 
	C93.111778,12.524216 94.213387,14.410656 94.035667,18.127380 
	C93.769867,23.686674 94.029335,29.271084 94.097397,35.295929 
z"/>
<path fill="#6B2230" opacity="1.000000" stroke="none" 
	d="
M74.999985,40.825176 
	C71.059464,41.846367 70.920013,38.878773 70.103439,36.065659 
	C69.931847,29.467482 70.026970,23.182922 70.031464,16.898298 
	C70.033035,14.701910 70.231194,12.839204 73.890350,13.054604 
	C74.897537,13.110003 75.135986,13.146781 75.257805,13.627788 
	C75.094116,22.989737 75.047050,31.907455 74.999985,40.825176 
z"/>
<path fill="#661C2B" opacity="1.000000" stroke="none" 
	d="
M135.209229,150.897079 
	C134.511429,150.766449 134.328537,150.590607 134.144714,149.802795 
	C134.364426,148.306580 134.525116,146.615982 134.905502,146.565048 
	C140.232742,145.851257 138.832779,141.848679 138.930298,138.612259 
	C138.995346,136.453796 138.936447,134.291565 138.979828,131.785675 
	C139.067047,131.211502 139.107483,130.982712 139.147919,130.753906 
	C142.991440,130.650635 144.368637,132.549957 143.928040,136.278931 
	C143.678360,138.392151 143.897964,140.559158 143.880157,142.701736 
	C143.804352,151.816925 144.883347,150.838623 135.209229,150.897079 
z"/>
<path fill="#336238" opacity="1.000000" stroke="none" 
	d="
M57.711948,151.252045 
	C57.317520,152.763519 57.046665,154.026459 56.329407,154.938187 
	C55.278664,156.273804 54.043613,158.150787 52.646683,158.389374 
	C49.424679,158.939651 46.057514,158.666916 42.751369,158.608124 
	C42.605858,158.605530 42.143456,157.158920 42.400959,156.820709 
	C44.366108,154.239822 46.023006,150.677368 48.669930,149.583084 
	C51.073666,148.589355 54.602882,150.317993 57.711948,151.252045 
z"/>
<path fill="#671C2B" opacity="1.000000" stroke="none" 
	d="
M40.238644,141.946686 
	C37.849842,141.844696 35.916370,141.716660 33.712082,141.764557 
	C31.630402,141.924377 29.806492,141.763168 28.011581,141.924530 
	C24.966412,142.198318 23.788511,140.783249 24.226200,137.453278 
	C24.746574,136.959381 24.979588,136.927643 25.665012,136.897339 
	C33.321526,136.891006 40.525627,136.883224 48.087746,136.923431 
	C48.684082,137.006058 48.922394,137.040680 49.160706,137.075287 
	C49.216774,143.719940 44.191486,141.485489 40.238644,141.946686 
z"/>
<path fill="#34653A" opacity="1.000000" stroke="none" 
	d="
M27.216103,153.827728 
	C28.397997,155.296783 29.189533,156.634750 29.981071,157.972748 
	C28.814600,158.605560 27.689999,159.682205 26.474640,159.796860 
	C20.120266,160.396332 15.584646,155.698029 16.548914,149.750183 
	C23.874817,148.057404 24.849852,148.431824 27.216103,153.827728 
z"/>
<path fill="#691D2C" opacity="1.000000" stroke="none" 
	d="
M49.566921,137.086548 
	C48.922394,137.040680 48.684082,137.006058 48.157883,136.468842 
	C47.852684,130.010208 47.835365,124.054161 48.194313,118.031799 
	C48.818581,117.907410 49.066582,117.849335 49.314583,117.791275 
	C50.496391,118.586761 52.644981,119.320686 52.700203,120.187920 
	C53.015087,125.132889 52.945213,130.115509 52.690231,135.069092 
	C52.653122,135.790039 50.920952,136.423721 49.566921,137.086548 
z"/>
<path fill="#701F2F" opacity="1.000000" stroke="none" 
	d="
M25.212599,136.895905 
	C24.979588,136.927643 24.746574,136.959381 24.164261,137.044724 
	C21.672415,137.193268 19.881350,136.986771 19.948122,134.084778 
	C20.049923,129.660416 19.796196,125.219139 20.109545,120.814644 
	C20.185143,119.752037 21.892220,118.805504 23.630196,117.883804 
	C24.658415,117.999901 24.905478,118.037766 25.096283,118.535446 
	C25.097549,124.962151 25.155075,130.929031 25.212599,136.895905 
z"/>
<path fill="#681D2B" opacity="1.000000" stroke="none" 
	d="
M78.951050,169.576080 
	C78.950386,168.923981 78.990425,168.683350 79.472183,168.345062 
	C84.564140,168.072296 89.214378,167.897186 93.864609,167.722061 
	C93.898102,167.962662 93.931595,168.203262 94.026344,168.803070 
	C94.541908,173.134430 92.616386,174.419449 88.881348,173.996689 
	C86.934875,173.776367 84.931923,173.822708 82.974365,173.986359 
	C79.950096,174.239243 78.718269,172.915192 78.951050,169.576080 
z"/>
<path fill="#691D2B" opacity="1.000000" stroke="none" 
	d="
M130.781326,12.672962 
	C130.601639,13.102792 130.400330,13.123930 129.465454,13.251347 
	C124.602409,13.297778 120.472939,13.237929 116.343475,13.178082 
	C116.117287,13.140767 115.891106,13.103454 115.324127,13.020929 
	C114.656715,9.279785 116.059982,7.481208 120.031792,7.991405 
	C122.118965,8.259512 124.277916,8.167648 126.387886,8.012700 
	C129.547028,7.780705 130.967621,9.134260 130.781326,12.672962 
z"/>
<path fill="#6C1F2E" opacity="1.000000" stroke="none" 
	d="
M125.074982,169.116455 
	C125.175529,170.533340 125.175529,171.836838 125.175529,173.957642 
	C121.202362,173.957642 117.269165,174.217606 113.415428,173.779175 
	C112.422714,173.666245 111.679924,171.356522 110.789375,169.639969 
	C110.756424,169.223984 111.035568,168.945389 111.616806,168.790161 
	C116.395432,168.677429 120.592819,168.719940 124.790215,168.762451 
	C124.790215,168.762451 124.974426,169.003098 125.074982,169.116455 
z"/>
<path fill="#6E2335" opacity="1.000000" stroke="none" 
	d="
M139.166245,130.311310 
	C139.107483,130.982712 139.067047,131.211502 138.568466,131.722778 
	C135.244125,132.186157 133.882751,131.072678 134.039810,127.975327 
	C134.206757,124.682854 133.949280,121.368858 134.230804,118.016571 
	C134.818878,117.927940 135.053253,117.887001 135.287628,117.846062 
	C137.977127,117.509438 139.351044,118.503021 139.216599,121.405968 
	C139.086227,124.221344 139.185913,127.047363 139.166245,130.311310 
z"/>
<path fill="#6C1E2D" opacity="1.000000" stroke="none" 
	d="
M75.374428,13.183558 
	C75.135986,13.146781 74.897537,13.110003 74.300629,13.022795 
	C73.672646,10.112668 74.698112,8.692862 77.838585,8.954110 
	C80.613701,9.184965 83.464157,8.736785 86.195892,9.151426 
	C87.297638,9.318658 88.172028,10.983808 89.190399,12.377343 
	C89.230904,12.787426 88.956573,13.062347 88.379143,13.219207 
	C83.659286,13.311896 79.516853,13.247727 75.374428,13.183558 
z"/>
<path fill="#631B29" opacity="1.000000" stroke="none" 
	d="
M135.183823,117.422668 
	C135.053253,117.887001 134.818878,117.927940 133.822296,118.005005 
	C132.030106,117.102272 130.418320,116.325226 130.101990,115.187881 
	C129.584702,113.327957 129.910828,111.233452 129.881180,109.237907 
	C129.914688,108.994034 129.948196,108.750168 130.046677,108.141052 
	C136.947174,108.060341 134.280167,113.463547 135.183823,117.422668 
z"/>
<path fill="#541722" opacity="1.000000" stroke="none" 
	d="
M49.220852,117.407028 
	C49.066582,117.849335 48.818581,117.907410 47.807640,117.997910 
	C45.199593,118.409370 43.367691,118.929367 41.503429,119.104118 
	C40.653366,119.183800 39.739410,118.581841 38.973312,118.069290 
	C39.257996,117.556313 39.477516,117.311203 39.750744,117.114197 
	C40.506256,116.615997 41.240051,116.080292 42.021919,115.627609 
	C43.519962,114.760277 45.046925,113.332291 46.558723,113.336273 
	C47.418091,113.338539 48.271194,115.715324 49.220852,117.407028 
z"/>
<path fill="#611A28" opacity="1.000000" stroke="none" 
	d="
M25.152538,118.075623 
	C24.905478,118.037766 24.658415,117.999901 24.041275,117.891846 
	C24.534809,116.269859 25.398422,114.718063 26.262035,113.166267 
	C27.657555,114.163445 29.002127,115.245842 30.469425,116.122948 
	C31.238094,116.582420 32.222084,116.681686 33.533363,117.173920 
	C33.973820,117.620712 33.989750,117.837204 33.723541,118.233139 
	C32.365448,118.653572 31.269205,119.157104 30.218157,119.075874 
	C28.514029,118.944168 26.839540,118.428932 25.152538,118.075623 
z"/>
<path fill="#5A222D" opacity="1.000000" stroke="none" 
	d="
M139.820908,57.918427 
	C139.643539,58.560059 139.411209,58.756908 138.526642,59.012520 
	C134.040924,59.837952 134.103867,57.171875 134.036453,54.618130 
	C134.228455,54.438343 134.436523,54.279602 134.838226,54.057899 
	C137.468704,53.996769 139.905151,54.041874 139.820908,57.918427 
z"/>
<path fill="#681C2B" opacity="1.000000" stroke="none" 
	d="
M34.005684,118.053703 
	C33.989750,117.837204 33.973820,117.620712 33.913719,117.079781 
	C34.772915,115.728027 35.640251,113.926781 36.589367,113.882599 
	C37.618793,113.834686 38.724377,115.423096 39.773746,116.706062 
	C39.477516,117.311203 39.257996,117.556313 38.574768,117.998871 
	C36.706799,118.116699 35.356239,118.085205 34.005684,118.053703 
z"/>
<path fill="#FCFBFB" opacity="1.000000" stroke="none" 
	d="
M133.628738,54.612114 
	C134.103867,57.171875 134.040924,59.837952 138.320450,59.117485 
	C138.771713,68.746109 138.745392,78.373085 138.904388,87.997002 
	C138.943527,90.367119 138.217117,91.398010 135.210419,91.182526 
	C134.578979,91.263031 134.295532,91.584320 134.295532,91.584320 
	C134.295532,91.584320 134.446304,91.985481 134.446304,91.985481 
	C134.308258,93.039085 134.170227,94.092682 133.896683,95.522888 
	C131.446335,95.868622 129.131485,95.837738 126.168533,95.958893 
	C125.212433,96.366028 125.178970,96.653145 125.420044,96.972290 
	C124.351913,98.001419 123.298569,99.907356 122.213387,99.925652 
	C109.728470,100.136162 97.238731,100.060234 84.750282,100.060501 
	C83.259598,100.060539 81.768921,100.060501 80.019035,100.060501 
	C79.609360,98.598801 79.236420,97.268173 78.800461,95.712669 
	C76.123932,95.712669 73.643272,95.712669 70.718925,95.711685 
	C69.341614,94.097618 68.407982,92.484543 67.474350,90.871460 
	C66.997475,91.043106 66.520592,91.214752 66.043709,91.386398 
	C66.043709,80.943352 66.043709,70.500313 66.093811,59.599579 
	C67.587204,58.304344 69.045143,57.490139 70.457748,56.603680 
	C70.665825,56.473103 70.650040,55.727871 70.752853,55.724495 
	C75.647621,55.563766 79.421074,52.733688 83.361984,49.003246 
	C83.927254,51.655350 84.194420,52.908829 84.580719,54.721241 
	C86.491768,54.721241 88.493217,54.462673 90.379524,54.817024 
	C91.533875,55.033871 92.528732,56.168243 93.563271,56.933739 
	C94.461647,57.598492 95.315109,58.323959 96.188416,59.022598 
	C96.743179,58.007820 97.581718,57.046673 97.786026,55.965660 
	C98.090317,54.355633 97.946846,52.660984 98.033142,50.559380 
	C103.836655,50.116421 109.600945,50.116421 116.066483,50.116421 
	C116.066483,37.811756 116.066483,25.933994 116.204979,13.617157 
	C120.472939,13.237929 124.602409,13.297778 129.164841,13.293970 
	C129.702988,26.546764 129.808167,39.863213 130.120514,53.771996 
	C130.327667,54.364323 130.612564,54.518982 130.612564,54.518982 
	C130.612564,54.518982 130.827057,54.275829 130.827057,54.275829 
	C131.625046,54.385921 132.423035,54.496010 133.628738,54.612114 
M79.098595,86.133034 
	C77.447853,86.199051 75.703171,85.958542 74.175667,86.426689 
	C72.921089,86.811180 71.924545,88.037674 70.813629,88.890961 
	C71.862289,89.610413 72.829498,90.714996 73.978897,90.958061 
	C75.657494,91.313034 77.466927,91.049309 79.366142,91.049309 
	C79.614075,88.907547 79.782295,87.454361 80.831985,86.224823 
	C86.959038,86.289528 82.726624,81.579880 83.978386,79.397713 
	C82.776070,78.782501 81.573761,78.167297 79.994324,77.359116 
	C79.994324,81.099106 79.994324,83.575096 79.098595,86.133034 
M124.747810,90.241768 
	C124.082146,89.083900 123.481522,86.996239 122.738510,86.944267 
	C120.595963,86.794403 118.395988,87.465515 116.218575,87.814178 
	C116.844864,88.856041 117.316559,90.620613 118.128555,90.794304 
	C120.011490,91.197083 122.058868,90.831070 124.747810,90.241768 
M98.419930,91.040833 
	C96.989838,91.040833 95.559746,91.040833 94.172035,91.040833 
	C93.759392,95.874283 94.525047,96.186882 103.546150,94.325920 
	C101.599701,92.793159 100.487946,91.917694 98.419930,91.040833 
M115.800453,85.317207 
	C115.053337,82.703697 118.242393,77.948769 112.112228,78.225266 
	C113.369583,80.776382 107.730408,86.144691 115.800453,85.317207 
z"/>
<path fill="#F8F5F5" opacity="1.000000" stroke="none" 
	d="
M75.257805,13.627788 
	C79.516853,13.247727 83.659286,13.311896 88.243179,13.357853 
	C88.730927,22.203009 88.777222,31.066378 88.822678,40.383343 
	C87.524529,40.925438 86.227211,41.013935 84.655121,41.121174 
	C84.460785,42.035416 84.469398,43.048786 84.026375,43.793468 
	C83.548393,44.596916 82.656250,45.661846 81.929443,45.673721 
	C81.121414,45.686924 79.610550,44.656704 79.596275,44.052616 
	C79.532654,41.359478 78.114639,40.723442 75.416199,40.870644 
	C75.047050,31.907455 75.094116,22.989737 75.257805,13.627788 
z"/>
<path fill="#616193" opacity="1.000000" stroke="none" 
	d="
M129.477264,109.189896 
	C129.910828,111.233452 129.584702,113.327957 130.101990,115.187881 
	C130.418320,116.325226 132.030106,117.102272 133.468613,118.052704 
	C133.949280,121.368858 134.206757,124.682854 134.039810,127.975327 
	C133.882751,131.072678 135.244125,132.186157 138.521667,132.068130 
	C138.936447,134.291565 138.995346,136.453796 138.930298,138.612259 
	C138.832779,141.848679 140.232742,145.851257 134.905502,146.565048 
	C134.525116,146.615982 134.364426,148.306580 134.048615,149.635635 
	C130.759445,150.041183 127.473991,149.724701 124.311378,150.209549 
	C123.056190,150.401993 122.073524,152.371933 121.041611,154.134125 
	C121.029915,154.987961 120.857460,155.081055 120.599075,155.014923 
	C108.743317,154.992371 96.887566,154.969833 84.422760,154.871857 
	C83.813721,154.796432 83.895912,154.475357 83.895912,154.475357 
	C84.430580,151.361053 83.387192,149.824844 79.962929,150.024597 
	C77.005402,150.197144 74.023293,149.948532 70.612045,149.774445 
	C70.032028,148.693542 70.158928,147.031235 69.711960,146.859100 
	C63.057968,144.296631 67.102791,138.661255 66.069923,134.528595 
	C65.960190,134.089539 66.047447,133.252075 66.306854,133.120987 
	C72.825745,129.826828 68.908409,123.788681 70.072708,118.650063 
	C71.553848,118.028763 73.002716,117.854172 75.227257,117.586113 
	C72.643517,111.901215 77.959190,109.419136 79.646996,105.396416 
	C79.964172,104.640427 81.875076,104.218040 83.054276,104.210312 
	C95.704041,104.127388 108.356125,104.068077 121.002670,104.286087 
	C122.410851,104.310364 123.754272,106.146049 125.191147,107.039696 
	C126.438530,107.815498 127.775810,108.446754 129.477264,109.189896 
z"/>
<path fill="#712B38" opacity="1.000000" stroke="none" 
	d="
M125.563583,96.867653 
	C125.178970,96.653145 125.212433,96.366028 125.760666,96.118011 
	C125.968185,96.367767 125.870255,96.580414 125.563583,96.867653 
z"/>
<path fill="#F5F2F2" opacity="1.000000" stroke="none" 
	d="
M120.591927,155.475616 
	C120.857460,155.081055 121.029915,154.987961 121.082123,154.577316 
	C123.731194,154.040466 125.593323,154.403030 125.269463,157.918579 
	C124.965126,161.222244 125.109482,164.567230 124.923317,168.328247 
	C120.592819,168.719940 116.395432,168.677429 111.755188,168.649673 
	C111.312332,165.712326 111.312332,162.760239 111.312332,158.977219 
	C113.406242,158.977219 115.547752,159.337250 117.471809,158.845840 
	C118.678459,158.537659 119.558311,156.949951 120.591927,155.475616 
z"/>
<path fill="#FEFDFD" opacity="1.000000" stroke="none" 
	d="
M83.511993,154.438293 
	C83.895912,154.475357 83.813721,154.796432 83.960907,154.871246 
	C84.108093,156.086807 84.108093,157.227554 84.108093,158.814240 
	C87.130432,158.814240 90.002457,158.814240 93.657440,158.814240 
	C93.657440,161.793518 93.657440,164.338989 93.761024,167.303253 
	C89.214378,167.897186 84.564140,168.072296 79.522667,167.982635 
	C79.222343,163.798981 79.313263,159.880081 79.617798,155.522369 
	C80.087021,154.951355 80.159348,154.752335 80.048393,154.486496 
	C81.074951,154.458069 82.101509,154.429657 83.511993,154.438293 
z"/>
<path fill="#5A222D" opacity="1.000000" stroke="none" 
	d="
M130.742401,54.238811 
	C130.827057,54.275829 130.612564,54.518982 130.612564,54.518982 
	C130.612564,54.518982 130.327667,54.364323 130.326752,54.202114 
	C130.325821,54.039906 130.657745,54.201794 130.742401,54.238811 
z"/>
<path fill="#76313E" opacity="1.000000" stroke="none" 
	d="
M134.584290,91.922836 
	C134.446304,91.985481 134.295532,91.584320 134.295532,91.584320 
	C134.295532,91.584320 134.578979,91.263031 134.790314,91.299507 
	C134.979599,91.548599 134.886475,91.723335 134.584290,91.922836 
z"/>
<path fill="#616193" opacity="1.000000" stroke="none" 
	d="
M79.870407,154.464493 
	C80.159348,154.752335 80.087021,154.951355 79.658615,155.067001 
	C79.357491,154.780365 79.426361,154.577713 79.870407,154.464493 
z"/>
<path fill="#E65265" opacity="1.000000" stroke="none" 
	d="
M33.723541,118.233139 
	C35.356239,118.085205 36.706799,118.116699 38.455894,118.218628 
	C39.739410,118.581841 40.653366,119.183800 41.503429,119.104118 
	C43.367691,118.929367 45.199593,118.409370 47.431377,118.064240 
	C47.835365,124.054161 47.852684,130.010208 47.799866,136.420837 
	C40.525627,136.883224 33.321526,136.891006 25.665012,136.897339 
	C25.155075,130.929031 25.097549,124.962151 25.096283,118.535446 
	C26.839540,118.428932 28.514029,118.944168 30.218157,119.075874 
	C31.269205,119.157104 32.365448,118.653572 33.723541,118.233139 
z"/>
<path fill="#F28F9C" opacity="1.000000" stroke="none" 
	d="
M79.950523,86.001175 
	C79.782295,87.454361 79.614075,88.907547 79.366142,91.049309 
	C77.466927,91.049309 75.657494,91.313034 73.978897,90.958061 
	C72.829498,90.714996 71.862289,89.610413 70.813629,88.890961 
	C71.924545,88.037674 72.921089,86.811180 74.175667,86.426689 
	C75.703171,85.958542 77.447853,86.199051 79.538635,86.076859 
	C79.978683,86.020676 79.950523,86.001175 79.950523,86.001175 
z"/>
<path fill="#FF7889" opacity="1.000000" stroke="none" 
	d="
M124.393692,90.509247 
	C122.058868,90.831070 120.011490,91.197083 118.128555,90.794304 
	C117.316559,90.620613 116.844864,88.856041 116.218575,87.814178 
	C118.395988,87.465515 120.595963,86.794403 122.738510,86.944267 
	C123.481522,86.996239 124.082146,89.083900 124.393692,90.509247 
z"/>
<path fill="#702634" opacity="1.000000" stroke="none" 
	d="
M98.898056,91.041534 
	C100.487946,91.917694 101.599701,92.793159 103.546150,94.325920 
	C94.525047,96.186882 93.759392,95.874283 94.172035,91.040833 
	C95.559746,91.040833 96.989838,91.040833 98.898056,91.041534 
z"/>
<path fill="#732937" opacity="1.000000" stroke="none" 
	d="
M115.506531,85.684433 
	C107.730408,86.144691 113.369583,80.776382 112.112228,78.225266 
	C118.242393,77.948769 115.053337,82.703697 115.506531,85.684433 
z"/>
<path fill="#6E2331" opacity="1.000000" stroke="none" 
	d="
M79.986504,86.035889 
	C79.994324,83.575096 79.994324,81.099106 79.994324,77.359116 
	C81.573761,78.167297 82.776070,78.782501 83.978386,79.397713 
	C82.726624,81.579880 86.959038,86.289528 80.391251,86.112999 
	C79.950523,86.001175 79.978683,86.020676 79.986504,86.035889 
z"/>
</svg>